<svg width="32" height="32" viewBox="0 0 32 32" fill="none" xmlns="http://www.w3.org/2000/svg">
<path fill-rule="evenodd" clip-rule="evenodd" d="M22.0342 17.965C21.6248 18.6883 20.8299 19.1667 19.9267 19.1667H10.9547L9.62992 21.5H24.0815V23.8333H9.62992C7.79938 23.8333 6.64325 21.9317 7.52239 20.3683L9.1482 17.5217L4.81272 8.66668H2.40411V6.33334H6.34218L7.47422 8.66668H25.2979C26.2131 8.66668 26.7912 9.62334 26.3456 10.3933L22.0342 17.965ZM23.2506 11H8.61831L11.4725 16.8333H19.9267L23.2506 11ZM9.62992 25C8.30519 25 7.23336 26.05 7.23336 27.3333C7.23336 28.6167 8.30519 29.6667 9.62992 29.6667C10.9547 29.6667 12.0385 28.6167 12.0385 27.3333C12.0385 26.05 10.9547 25 9.62992 25ZM19.2764 27.3333C19.2764 26.05 20.3482 25 21.6729 25C22.9977 25 24.0815 26.05 24.0815 27.3333C24.0815 28.6167 22.9977 29.6667 21.6729 29.6667C20.3482 29.6667 19.2764 28.6167 19.2764 27.3333Z" fill="white"/>
</svg>
