<svg width="32" height="32" viewBox="0 0 32 32" fill="none" xmlns="http://www.w3.org/2000/svg">
<path fill-rule="evenodd" clip-rule="evenodd" d="M19.9533 19.0067H21.0066L27.66 25.6733L25.6733 27.66L19.0066 21.0067V19.9533L18.6466 19.58C17.1266 20.8867 15.1533 21.6733 13.0066 21.6733C8.21997 21.6733 4.33997 17.7933 4.33997 13.0067C4.33997 8.22 8.21997 4.34 13.0066 4.34C17.7933 4.34 21.6733 8.22 21.6733 13.0067C21.6733 15.1533 20.8866 17.1267 19.58 18.6467L19.9533 19.0067ZM7.00663 13.0067C7.00663 16.3267 9.68663 19.0067 13.0066 19.0067C16.3266 19.0067 19.0066 16.3267 19.0066 13.0067C19.0066 9.68666 16.3266 7.00666 13.0066 7.00666C9.68663 7.00666 7.00663 9.68666 7.00663 13.0067Z" fill="#FAFAFA"/>
</svg>
